M48
METRIC,TZ
T01C.2
T02C.8
T03C1.1
T04C2.5
T05C3.
T06C3.1
;LEADER: 12 
;HEADER: 
;CODE  : ASCII 
;FILE  : pci_lpt_com_route-1-2.drl for board #Taaaacz06200.tmp ... layers TOP and BOTTOM
;T01 Holesize 1. = 0.200000 Tolerance = +0.000000/-0.000000 PLATED MM Quantity = 449
;T02 Holesize 2. = 0.800000 Tolerance = +0.050000/-0.050000 PLATED MM Quantity = 32
;T03 Holesize 3. = 1.100000 Tolerance = +0.050000/-0.050000 PLATED MM Quantity = 282
;T04 Holesize 4. = 2.500000 Tolerance = +0.100000/-0.100000 PLATED MM Quantity = 4
;T05 Holesize 5. = 3.000000 Tolerance = +0.050000/-0.050000 PLATED MM Quantity = 2
;T06 Holesize 6. = 3.100000 Tolerance = +0.050000/-0.050000 PLATED MM Quantity = 4
%
G90
T01
X1917700Y620450
X1917800Y634200
X2063150Y631650
X2077800Y626650
X2088550Y624200
X2095500Y629200
X2128600Y628450
X2177500Y630200
X2189150Y624200
X2214800Y620450
X2222500Y634200
X2240950Y620200
X2247900Y625200
X2292750Y631950
X2298700Y626200
X2328500Y621451
X2362200Y627451
X2369150Y632201
X2394150Y624200
X2413000Y627451
X2425700Y633201
X2437700Y621450
X2451100Y632950
X2455850Y627451
X2471750Y620200
X2527300Y627451
X2532300Y620450
X2570150Y626200
X2570400Y620450
X2584100
X2603500
X2628900
X2641600
X2971800Y736900
X2828550Y663900
X2822985Y731150
X2659450Y715650
X2625850Y644225
X2596350Y661900
X2595550Y639475
X2583850Y661900
X2571350
X2558850Y636201
X2540000Y659451
X2534250Y636201
X2507351Y653701
X2482850Y684350
X2463900Y659451
X2456650Y643200
X2455850Y637700
X2431650Y657700
X2413000Y651702
X2400300Y656452
X2394150Y659340
X2369150Y661900
X2362200Y655702
X2349500Y689650
Y640451
X2343250Y667900
X2336000Y639650
X2317400Y637950
X2311400Y656652
X2298700Y657401
X2286000Y661900
X2273300Y637950
X2260600Y643700
X2227350Y683650
X2221600Y654200
X2194100Y649450
X2193900Y639950
X2171700Y697400
X2153250Y705150
Y643949
X2146300Y702150
X2138350Y638200
X2128600Y644200
X2121200Y638450
X2112350Y664701
X2097300Y640950
X2082200Y659701
X2070100Y637450
X2044700Y657399
X2013450Y642200
X2008700Y650951
X1986950Y712350
X1911550Y638950
X1886550Y659000
X1814149Y660751
X1775240Y723900
X1649650Y685800
X1648600Y640477
X1620385Y887820
X1677260Y800100
X1689260
X1795240Y838200
X1838700Y876300
X1847450Y800100
X1860550Y846950
X1868200Y838200
X1899050Y858550
X1911550Y825050
X1936750Y849800
X2007200Y849400
X2019700Y870990
X2044700Y849400
X2057200Y821900
X2069700Y870150
X2082200Y861400
X2095500Y822899
X2165350Y865400
X2215350Y873151
X2261000Y877150
X2286000Y858150
X2311000Y849400
X2330450Y854150
X2381250Y817150
X2394150Y821900
X2431650Y870150
X2456650Y851301
X2521350Y853901
X2583850Y851151
X2629500Y862150
X2642000Y870900
X2647950Y807300
X2869850Y837800
X2984500Y990070
X2971801Y1004995
X2949630Y1010745
X2802900Y946150
X2747750Y966800
X2738250Y981300
X2674500Y957925
X2633050Y937250
X2603650Y951357
X2597400Y971750
X2561850Y1013150
X2536850Y1008400
X2526850
X2521850Y969149
X2516850Y973899
X2511850Y964150
X2506850Y1008400
X2501850Y975650
Y945607
X2491850Y968120
X2486850Y975900
X2482100Y1008400
X2476850Y964150
X2461850Y932251
X2446850Y941001
X2441050Y1008650
X2440000Y932251
X2439000Y906600
X2436850Y948750
X2426850Y957500
X2421850Y1008650
X2419350Y941001
X2411850Y945751
X2411600Y932251
X2396850Y975650
X2388301Y931250
X2386850Y948750
X2376850Y957500
X2366850Y964752
X2356850Y1014150
X2351850Y970451
X2339600Y944000
X2331850Y975650
X2316850Y1012901
X2286850Y975650
X2192100Y980900
X2139850Y976300
X2122350
X2117100Y946150
X2038451Y898349
X2011950Y918600
X2007200Y996950
X1973890Y982515
X1936550Y913850
X1908290Y1006015
Y991265
X1840670Y1008050
X1817251Y1003300
X1776000Y977900
X1747455Y932680
X1746985Y904500
X1719570Y1003300
X1692485Y901000
X1669005Y975100
X1668735Y893820
X1644350Y993250
X1611550Y981400
X1719570Y1028700
X1731235Y1095850
X1767250Y1054100
X1806150Y1085850
X1817250Y1055700
X1840670Y1048801
X1890750Y1040958
X1899600Y1117000
X1905350Y1060450
X1961200Y1098495
X1997795Y1053800
X1999350Y1136301
X2023050Y1097866
X2032550Y1123950
X2039800Y1026707
X2040550Y1103300
X2049300Y1060450
X2059050Y1062250
X2127100Y1022350
X2137100Y1113050
X2151677Y1117650
X2170100Y1102650
X2173349Y1072650
X2173990Y1107650
X2177490Y1087650
X2178850Y1077650
X2181380Y1092650
X2186849Y1057650
X2192100Y1052650
X2211349Y1036900
X2227850Y1137650
X2229351Y1062650
X2232101Y1057650
X2243601Y1127650
X2250600Y1097650
X2266800Y1129400
X2283300Y1023401
X2298850Y1048050
X2305100Y1017901
Y1091900
X2310850Y1097650
X2321850Y1018651
X2399950Y1027150
X2432050Y1075300
X2441050Y1058020
X2462100Y1032900
X2537850Y1081050
X2571850Y1025900
X2582711Y1025650
X2611100Y1057650
X2643850Y1122650
X2647600Y1092650
X2652350Y1077650
X2661100Y1062650
X2669850Y1102650
X2683350Y1097650
X2688100Y1112650
X2692100Y1037600
X2695460Y1117650
X2704850Y1107650
X2925380Y1018995
X2984500Y1259750
Y1181230
X2958820Y1201095
X2944820Y1181230
X2716101Y1172650
X2714351Y1227650
X2700851
X2700101Y1197650
X2696101Y1217650
X2695351Y1167650
X2678601Y1157650
X2645351Y1182650
X2643850Y1211900
X2607100Y1187650
X2601100Y1209850
X2588960Y1187650
X2582711Y1152650
X2313550Y1257300
X2267602Y1212650
X2256800Y1263050
X2250850Y1202650
X2241350Y1166796
X2227850Y1232900
X2195100Y1192650
X2194850Y1237650
Y1212650
X2181600Y1200150
X2162600Y1152650
X2153410Y1257650
X2151240Y1267650
X2149520Y1252650
X2145100Y1217650
X2129850Y1242650
X2117100Y1227650
X2112350Y1165796
X2058301Y1248250
X2029300Y1149295
X2027800Y1143545
X1992950Y1185250
X1983200Y1158350
X1981090Y1263250
X1973450Y1185250
X1956350Y1238250
Y1232500
X1933600Y1172050
X1914350Y1185250
X1809390Y1248550
X1800640Y1231900
X1787890Y1173950
X1783450Y1206500
X1758500Y1155700
X1686600Y1358900
X1758500Y1343000
X1767250Y1327150
X1776000Y1312850
X1783450Y1338250
X1793950Y1298350
X1800640Y1355085
X1807000Y1282700
X1831335Y1393850
X1847625Y1366335
X1850249Y1286350
X1873249Y1308100
X1932448Y1369795
X1993570Y1350335
X1999350Y1286350
X2028938Y1338250
X2065201Y1317600
X2109804Y1366050
X2112350Y1311900
X2120350Y1281100
X2129304Y1392850
X2149318Y1297900
X2155130Y1272650
X2159020Y1277650
X2162818Y1337650
X2175250Y1292650
X2184000Y1307650
X2188750Y1322650
X2227600Y1357650
X2248251Y1336465
X2261850Y1328050
Y1370649
X2266800Y1300801
X2273300Y1312300
X2301210Y1306550
X2305100Y1294050
X2321850Y1391900
X2327100Y1365899
Y1387151
X2331850Y1391900
X2346850Y1387150
X2368550Y1312300
X2371850Y1365899
X2376850Y1391650
X2412600Y1391900
X2416700Y1370400
X2425700Y1312300
X2427050Y1303900
X2431850Y1376150
X2441050Y1336465
X2451850Y1376150
X2471850Y1366650
Y1389900
X2486850Y1351400
Y1391151
X2496099Y1355150
X2501850Y1390401
X2514001Y1390901
X2518751Y1360649
X2523100Y1303900
X2523501Y1377149
X2528251Y1381899
X2560850Y1380900
X2561850Y1391900
X2571850Y1386400
X2582850Y1376150
X2610850Y1277650
X2643600Y1297650
X2648350Y1287650
X2657100Y1302650
X2667850Y1374150
X2669850Y1292650
X2681849Y1291250
X2694589Y1347650
X2721300Y1342400
X2977340Y1476225
X2740700Y1426600
X2648750Y1455150
X2621598Y1401400
X2609850
X2587600Y1409400
X2582600Y1415402
X2578550Y1462001
X2576850Y1426400
X2566850Y1435150
X2560820Y1431400
X2526850Y1424650
X2512601Y1428400
X2502100Y1458150
Y1432901
X2496099Y1425071
X2494350Y1520450
X2476850Y1426151
X2473495Y1468301
X2416850Y1448400
X2406850Y1429150
X2396850Y1424400
X2391850Y1442650
X2387100Y1516200
X2386850Y1433900
X2381850Y1458150
X2360600Y1461949
X2349700Y1467400
Y1432400
X2336850Y1441150
X2321600Y1429900
X2316850Y1424400
X2306850Y1428901
X2305050Y1434650
X2286850Y1456949
Y1424650
X2276850Y1423401
X2266850Y1436151
X2239350Y1445450
X2228850Y1456949
X2175900Y1447200
X2166800Y1519450
X2156100Y1416850
X2151350Y1443250
X2146600Y1416850
X2139280Y1454150
X2125891Y1428750
X2061952Y1474740
X2051955Y1504710
X2039205Y1521932
X1980280
X1957030Y1504711
Y1447954
X1814394Y1463805
Y1409280
X1807605Y1414665
X1786355Y1429166
X1859448Y1533691
X1863452Y1541959
X1972178Y1531950
X2171700Y1598700
X2192450Y1551450
X2223100Y1526700
X2340950Y1550955
X2413000Y1575850
X2456535Y1536570
X2518861Y1546205
X2522751Y1541455
X2601700Y1562100
X2646700
T02
X1638300Y1564400
Y1534400
X1666320Y1035450
X1636320
X1820150Y685800
X1850150
X1943100Y1060450
Y1136650
Y1200150
Y1276350
X2019300
Y1200150
Y1136650
Y1060450
X2781300Y827800
Y797800
Y713500
Y683500
X2895600Y971550
X2971800
X2895600Y1047750
X2971800
X2895600Y1162050
X2971800
X2895600Y1238250
X2971800
X3048090Y1414430
X3073090
X3047085Y1474470
X3072085
X3047475Y1536745
X3072475
T03
X1562100Y651200
X1533700Y665000
X1562100Y678900
X1533700Y692700
X1562100Y706600
X1533700Y720400
X1562100Y734300
X1533700Y748100
X1562100Y762000
X1580300Y917500
Y942500
Y962500
Y987500
X1530350Y1153500
X1501950Y1167300
X1530350Y1181200
X1501950Y1195000
X1530350Y1208900
X1501950Y1222700
X1530350Y1236600
X1501950Y1250400
X1530350Y1264300
X1501950Y1278100
X1530350Y1292000
X1501950Y1305800
X1530350Y1319700
X1501950Y1333500
X1530350Y1347400
X1501950Y1361200
X1530350Y1375100
X1501950Y1388900
X1530350Y1402800
X1501950Y1416600
X1530350Y1430500
X1501950Y1444300
X1530350Y1458200
X1501950Y1472000
X1530350Y1485900
X1723950Y1493100
X1748950
X1768950
X1793950
X1933200Y658915
X1958600
X1933200Y684315
X1958600
X2076450Y895350
X2101850
X2165350
R02X25400
X2076450Y920750
X2101850
X2165350
R02X25400
X2076450Y946150
X2101850
X2076450Y971550
X2101850
X2076450Y996950
X2101850
X2076450Y1022350
X2101850
X2076450Y1047750
X2101850
X2076450Y1073150
X2101850
X2076450Y1098550
X2101850
X2076450Y1123950
X2101850
X2076450Y1149350
X2101850
X2076450Y1174750
X2101850
X2076450Y1200150
X2101850
X2076450Y1225550
X2101850
X2076450Y1250950
X2101850
X2076450Y1276350
X2101850
X2076450Y1301750
X2101850
X2076450Y1327150
X2101850
X2076450Y1352550
X2101850
X2076450Y1377950
X2101850
X2076450Y1403350
X2101850
X2076450Y1428750
X2101850
X2076450Y1454150
X2101850
X2076450Y1479550
R06X25400
X2076450Y1504950
R06X25400
X2209800Y1562100
Y1587500
X2311400
R03X-25400
X2311400Y1562100
R03X-25400
X2432050Y1504950
R07X-25400
X2432050Y1479550
R07X-25400
X2302155Y1357965
X2279610Y1215000
X2279650Y1187450
X2272050Y1045035
X2419350Y920750
R07X-25400
X2419350Y895350
R07X-25400
X2482850Y647700
Y673100
X2444750Y895350
R07X25400
X2444750Y920750
R07X25400
X2534760Y1046520
X2562840
X2572155Y1326780
X2546350Y1352550
X2457450Y1479550
R07X25400
X2457450Y1504950
R07X25400
X2449845Y1561950
R04X25400
X2449845Y1587350
R04X25400
X2787655Y1558325
R02X-25400
X2787655Y1532925
R02X-25400
X2787650Y1504950
R05X-25400
X2787650Y1479550
R05X-25400
X2787650Y1454150
X2762250
X2787650Y1428750
X2762250
X2787650Y1403350
X2762250
X2787650Y1377950
X2762250
X2787650Y1352550
X2762250
X2787650Y1327150
X2762250
X2787650Y1301750
X2762250
X2787650Y1276350
X2762250
X2838450Y1250950
R03X-25400
X2838450Y1225550
R03X-25400
X2838450Y1200150
R03X-25400
X2787650Y1174750
X2762250
X2787650Y1149350
X2762250
X2787650Y1123950
X2762250
X2787650Y1098550
X2762250
X2787650Y1073150
X2762250
X2787650Y1047750
X2762250
X2787650Y1022350
X2762250
X2787650Y996950
X2762250
X2787650Y971550
X2762250
X2787650Y946150
X2762250
X2787650Y920750
X2762250
X2698750
R02X-25400
X2787650Y895350
X2762250
X2698750
R02X-25400
T04
X1552800Y887500
Y1017500
X1693950Y1520600
X1823950
T05
X2978150Y692150
X3048150
T06
X1547900Y581600
Y831500
X1516150Y1084000
Y1555400
M30
