G04 ================== begin FILE IDENTIFICATION RECORD ==================*
G04 Layout Name:  C:/SPB_Data/pcb_pkg/dummy_root_design/physical/pci_lpt_com_route.brd*
G04 Film Name:    XC4TPCI_DIMENSION*
G04 File Format:  Gerber RS274X*
G04 File Origin:  Cadence Allegro 16.6-S026*
G04 Origin Date:  Wed May 16 19:07:04 2018*
G04 *
G04 Layer:  BOARD GEOMETRY/DIMENSION*
G04 *
G04 Offset:    (0.0000 0.0000)*
G04 Mirror:    No*
G04 Mode:      Positive*
G04 Rotation:  0*
G04 FullContactRelief:  No*
G04 UndefLineWidth:     0.2000*
G04 ================== end FILE IDENTIFICATION RECORD ====================*
%FSLAX45Y45*MOMM*%
%IR0*IPPOS*OFA0.00000B0.00000*MIA0B0*SFA1.00000B1.00000*%
%ADD10C,.2*%
G75*
%LPD*%
G75*
G54D10*
G01X14508450Y16148700D02*
X14548950Y16189200D01*
X31233600D01*
X31274100Y16148700D01*
Y6365250D01*
X31233600Y6324750D01*
X26539650D01*
X26499150Y6284250D01*
Y5564700D01*
X26458650Y5524200D01*
X25084350D01*
X25043850Y5564700D01*
Y6224850D01*
X25004700Y6264000D01*
X24894000D01*
X24854850Y6224850D01*
Y5564700D01*
X24814350Y5524200D01*
X20263500D01*
X20223000Y5564700D01*
Y6224850D01*
X20183850Y6264000D01*
X20069100D01*
X20028600Y6223500D01*
Y5564700D01*
X19988100Y5524200D01*
X18628650D01*
X18588150Y5564700D01*
Y6284250D01*
X18549000Y6323400D01*
X16168950D01*
X16128450Y6282900D01*
Y5564700D01*
X16087950Y5524200D01*
X14548950D01*
X14508450Y5564700D01*
Y16148700D01*
G01D02*
X14548950Y16189200D01*
X31233600D01*
X31274100Y16148700D01*
Y6365250D01*
X31233600Y6324750D01*
X26539650D01*
X26499150Y6284250D01*
Y5564700D01*
X26458650Y5524200D01*
X25084350D01*
X25043850Y5564700D01*
Y6224850D01*
X25004700Y6264000D01*
X24894000D01*
X24854850Y6224850D01*
Y5564700D01*
X24814350Y5524200D01*
X20263500D01*
X20224350Y5563350D01*
Y6224850D01*
X20185200Y6264000D01*
X20067750D01*
X20029950Y6226200D01*
Y5564700D01*
X19989450Y5524200D01*
X18628650D01*
X18588150Y5564700D01*
Y6284250D01*
X18547650Y6324750D01*
X16168950D01*
X16128450Y6284250D01*
Y5564700D01*
X16087950Y5524200D01*
X14550300D01*
X14508450Y5566050D01*
Y16148700D01*
M02*
