G04 ================== begin FILE IDENTIFICATION RECORD ==================*
G04 Layout Name:  C:/SPB_Data/pcb_pkg/dummy_root_design/physical/pci_lpt_com_route.brd*
G04 Film Name:    XC4TPCI_SOLDERTOP*
G04 File Format:  Gerber RS274X*
G04 File Origin:  Cadence Allegro 16.6-S026*
G04 Origin Date:  Wed May 16 19:11:04 2018*
G04 *
G04 Layer:  PIN/SOLDERMASK_TOP*
G04 Layer:  PACKAGE GEOMETRY/SOLDERMASK_TOP*
G04 Layer:  BOARD GEOMETRY/SOLDERMASK_TOP*
G04 *
G04 Offset:    (0.0000 0.0000)*
G04 Mirror:    No*
G04 Mode:      Positive*
G04 Rotation:  0*
G04 FullContactRelief:  No*
G04 UndefLineWidth:     0.2000*
G04 ================== end FILE IDENTIFICATION RECORD ====================*
%FSLAX45Y45*MOMM*%
%IR0*IPPOS*OFA0.00000B0.00000*MIA0B0*SFA1.00000B1.00000*%
%ADD18R,1.X.9*%
%ADD19R,.9X1.*%
%ADD31R,2.7X.5*%
%ADD22R,.65X2.*%
%ADD30R,.5X2.7*%
%AMMACRO29*
21,1,.6,2.5,0.0,0.0,89.92*%
%ADD29MACRO29*%
%ADD17R,1.397X.762*%
%AMMACRO23*
21,1,.6,2.5,0.0,0.0,89.962*%
%ADD23MACRO23*%
%ADD33R,2.X1.5*%
%ADD20R,1.4X1.2*%
%ADD14R,1.2X1.4*%
%ADD34R,1.2X1.6*%
%ADD16C,1.1*%
%ADD11C,1.5*%
%ADD21R,1.28X4.5*%
%ADD24R,2.X2.*%
%ADD15R,1.1X1.1*%
%ADD13C,2.7*%
%ADD10C,3.6*%
%AMMACRO25*
21,1,.6,2.5,0.0,0.0,.083*%
%ADD25MACRO25*%
%ADD12R,1.5X1.5*%
%ADD32R,7.X7.*%
%AMMACRO28*
21,1,.6,2.5,0.0,0.0,179.941*%
%ADD28MACRO28*%
%AMMACRO26*
21,1,.6,2.5,0.0,0.0,179.939*%
%ADD26MACRO26*%
%AMMACRO27*
21,1,.6,2.5,0.0,0.0,179.899*%
%ADD27MACRO27*%
G75*
%LPD*%
G75*
G36*
G01X15988200Y10504500D02*
Y10204500D01*
X16338200D01*
Y10504500D01*
X15988200D01*
G37*
G36*
G01X16533000Y15319000D02*
X16233000D01*
Y14969000D01*
X16533000D01*
Y15319000D01*
G37*
G36*
G01Y16019000D02*
X16233000D01*
Y15669000D01*
X16533000D01*
Y16019000D01*
G37*
G36*
G01X16688200Y10504500D02*
Y10204500D01*
X17038200D01*
Y10504500D01*
X16688200D01*
G37*
G36*
G01X18176500Y6708000D02*
Y7008000D01*
X17826500D01*
Y6708000D01*
X18176500D01*
G37*
G36*
G01X18588150Y6180300D02*
Y5564700D01*
X18628650Y5524200D01*
X19988100D01*
X20028600Y5564700D01*
Y6180300D01*
X18588150D01*
G37*
G36*
G01Y6181650D02*
Y5703750D01*
X20028600D01*
Y6181650D01*
X18588150D01*
G37*
G36*
G01X18876500Y6708000D02*
Y7008000D01*
X18526500D01*
Y6708000D01*
X18876500D01*
G37*
G36*
G01X20224350Y6178950D02*
Y5563350D01*
X20263500Y5524200D01*
X24813000D01*
X24854850Y5566050D01*
Y6178950D01*
X20224350D01*
G37*
G36*
G01D02*
Y5703750D01*
X24853500D01*
Y6178950D01*
X20224350D01*
G37*
G36*
G01X25043850Y6181650D02*
Y5564700D01*
X25084350Y5524200D01*
X26458650D01*
X26499150Y5564700D01*
Y6181650D01*
X25043850D01*
G37*
G36*
G01D02*
Y5703750D01*
X26497800D01*
Y6181650D01*
X25043850D01*
G37*
G36*
G01X27663000Y6460000D02*
X27963000D01*
Y6810000D01*
X27663000D01*
Y6460000D01*
G37*
G36*
G01Y7160000D02*
X27963000D01*
Y7510000D01*
X27663000D01*
Y7160000D01*
G37*
G36*
G01X27963000Y7953000D02*
X27663000D01*
Y7603000D01*
X27963000D01*
Y7953000D01*
G37*
G36*
G01Y8653000D02*
X27663000D01*
Y8303000D01*
X27963000D01*
Y8653000D01*
G37*
G36*
G01X28892000Y8525950D02*
Y8325950D01*
X29212000D01*
Y8525950D01*
X28892000D01*
G37*
G36*
G01X23193500Y11001500D02*
Y13001500D01*
X25193500D01*
Y11001500D01*
X23193500D01*
G37*
G54D10*
X15161500Y10840000D03*
Y15554000D03*
X15479000Y5816000D03*
Y8315000D03*
X29781500Y6921500D03*
X30481500D03*
G54D11*
X15019500Y11673000D03*
Y12504000D03*
Y12227000D03*
Y11950000D03*
Y13058000D03*
Y12781000D03*
Y13889000D03*
Y13612000D03*
Y13335000D03*
Y14720000D03*
Y14443000D03*
Y14166000D03*
X15337000Y6650000D03*
Y6927000D03*
Y7204000D03*
X15621000Y6512000D03*
Y6789000D03*
Y7066000D03*
X15337000Y7481000D03*
X15621000Y7343000D03*
X15803000Y9175000D03*
Y9425000D03*
Y9625000D03*
X15303500Y12366000D03*
Y12089000D03*
Y11812000D03*
Y13197000D03*
Y12920000D03*
Y12643000D03*
Y14028000D03*
Y13751000D03*
Y13474000D03*
Y14582000D03*
Y14305000D03*
Y14859000D03*
X17239500Y14931000D03*
X17489500D03*
X17689500D03*
X19586000Y6589150D03*
Y6843150D03*
X19332000Y6589150D03*
X21018500Y8953500D03*
X20764500D03*
X21018500Y9207500D03*
X20764500D03*
X21018500Y9461500D03*
X20764500D03*
X21018500Y9715500D03*
X20764500D03*
X21018500Y9969500D03*
X20764500D03*
X21018500Y10223500D03*
X20764500D03*
X21018500Y10477500D03*
Y10731500D03*
Y10985500D03*
X20764500Y10477500D03*
Y10731500D03*
Y10985500D03*
X21018500Y11239500D03*
Y11493500D03*
Y11747500D03*
X20764500Y11239500D03*
Y11493500D03*
Y11747500D03*
X21018500Y12001500D03*
Y12255500D03*
Y12509500D03*
X20764500Y12001500D03*
Y12255500D03*
Y12509500D03*
X21018500Y12763500D03*
Y13017500D03*
Y13271500D03*
X20764500Y12763500D03*
Y13017500D03*
Y13271500D03*
X21018500Y13525500D03*
Y13779500D03*
Y14033500D03*
X20764500Y13525500D03*
Y13779500D03*
Y14033500D03*
X21018500Y14287500D03*
Y14541500D03*
Y14795500D03*
X20764500Y14287500D03*
Y14541500D03*
Y14795500D03*
X21018500Y15049500D03*
X21907500Y9207500D03*
X21653500D03*
X21907500Y8953500D03*
X21272500Y14795500D03*
X21526500D03*
X21780500D03*
X21272500Y15049500D03*
X21526500D03*
X21780500D03*
X22669500Y9207500D03*
X22415500D03*
X22161500D03*
X22669500Y8953500D03*
X22415500D03*
X22161500D03*
X22034500Y14795500D03*
X22288500D03*
X22542500D03*
X22034500Y15049500D03*
X22288500D03*
X22542500D03*
X22606000Y15875000D03*
X22352000D03*
X22098000D03*
X22606000Y15621000D03*
X22352000D03*
X23431500Y9207500D03*
X23177500D03*
X22923500D03*
X23431500Y8953500D03*
X23177500D03*
X22923500D03*
X22796500Y14795500D03*
X23050500D03*
X23304500D03*
X22796500Y15049500D03*
X23050500D03*
X23304500D03*
X23114000Y15875000D03*
X22860000D03*
X23114000Y15621000D03*
X22860000D03*
X24193500Y9207500D03*
X23939500D03*
X23685500D03*
X24193500Y8953500D03*
X23939500D03*
X23685500D03*
X23558500Y14795500D03*
X23812500D03*
X24066500D03*
X23558500Y15049500D03*
X23812500D03*
X24066500D03*
X24828500Y6731000D03*
X24955500Y9207500D03*
X24701500D03*
X24447500D03*
X24955500Y8953500D03*
X24701500D03*
X24447500D03*
X24320500Y14795500D03*
X24574500D03*
X24828500D03*
X24320500Y15049500D03*
X24574500D03*
X24828500D03*
X24752450Y15873500D03*
X24498450D03*
X24752450Y15619500D03*
X25717500Y9207500D03*
X25463500D03*
X25209500D03*
X25717500Y8953500D03*
X25463500D03*
X25209500D03*
X25082500Y14795500D03*
X25336500D03*
X25590500D03*
X25082500Y15049500D03*
X25336500D03*
X25590500D03*
X25514450Y15873500D03*
X25260450D03*
X25006450D03*
X25514450Y15619500D03*
X25260450D03*
X25006450D03*
X26479500Y9207500D03*
X26225500D03*
X25971500D03*
X26479500Y8953500D03*
X26225500D03*
X25971500D03*
X25844500Y14795500D03*
X26098500D03*
X26352500D03*
X25844500Y15049500D03*
X26098500D03*
X26352500D03*
X26987500Y9207500D03*
Y8953500D03*
X26733500Y9207500D03*
Y8953500D03*
X26606500Y14795500D03*
X26860500D03*
X27114500D03*
X26606500Y15049500D03*
X26860500D03*
X27114500D03*
X27622500Y9461500D03*
Y9207500D03*
Y8953500D03*
X27876500Y9461500D03*
Y9207500D03*
X27622500Y10223500D03*
Y9969500D03*
Y9715500D03*
X27876500Y10223500D03*
Y9969500D03*
Y9715500D03*
X27622500Y10985500D03*
Y10731500D03*
Y10477500D03*
X27876500Y10985500D03*
Y10731500D03*
Y10477500D03*
X27622500Y11747500D03*
Y11493500D03*
Y11239500D03*
X27876500Y11747500D03*
Y11493500D03*
Y11239500D03*
X27622500Y12509500D03*
Y12255500D03*
Y12001500D03*
X27876500Y12509500D03*
Y12255500D03*
Y12001500D03*
X27622500Y13271500D03*
Y13017500D03*
Y12763500D03*
X27876500Y13271500D03*
Y13017500D03*
Y12763500D03*
X27622500Y14033500D03*
X27876500D03*
X27622500Y13779500D03*
Y13525500D03*
X27876500Y13779500D03*
Y13525500D03*
X27622500Y14795500D03*
X27876500D03*
X27622500Y14541500D03*
X27876500D03*
X27622500Y14287500D03*
X27876500D03*
X27368500Y14795500D03*
X27622500Y15049500D03*
X27876500D03*
X27876550Y15583250D03*
X27622550D03*
X27368550D03*
X27876550Y15329250D03*
X27622550D03*
X28384500Y12509500D03*
Y12255500D03*
Y12001500D03*
X28130500Y12509500D03*
Y12255500D03*
G54D20*
X16991100Y14333050D03*
Y14133050D03*
G54D12*
X15621000Y7620000D03*
X15803000Y9875000D03*
X15303500Y11535000D03*
X17939500Y14931000D03*
X19332000Y6843150D03*
X20764500Y15049500D03*
X21653500Y8953500D03*
X22098000Y15621000D03*
X22720500Y10450350D03*
X22796500Y11874500D03*
X22796100Y12150000D03*
X23021550Y13579650D03*
X24828500Y6477000D03*
X24498450Y15619500D03*
X25628400Y10465200D03*
X25347600D03*
X25721550Y13267800D03*
X25463500Y13525500D03*
X27876500Y8953500D03*
X27368500Y15049500D03*
X27368550Y15329250D03*
X28130500Y12001500D03*
G54D21*
X18669000Y5939500D03*
X18796000D03*
X18923000D03*
X19050000D03*
X19177000D03*
X19304000D03*
X19431000D03*
X19558000D03*
X19685000D03*
X19812000D03*
X19939000D03*
X20320000D03*
X20447000D03*
X20574000D03*
X20701000D03*
X20828000D03*
X20955000D03*
X21082000D03*
X21209000D03*
X21336000D03*
X21463000D03*
X21590000D03*
X21717000D03*
X21844000D03*
X21971000D03*
X22098000D03*
X22225000D03*
X22352000D03*
X22479000D03*
X22606000D03*
X22733000D03*
X22860000D03*
X22987000D03*
X23114000D03*
X23241000D03*
X23368000D03*
X23495000D03*
X23622000D03*
X23749000D03*
X23876000D03*
X24003000D03*
X24130000D03*
X24257000D03*
X24384000D03*
X24511000D03*
X24638000D03*
X24765000D03*
X25146000D03*
X25273000D03*
X25400000D03*
X25527000D03*
X25654000D03*
X25781000D03*
X25908000D03*
X26035000D03*
X26162000D03*
X26289000D03*
X26416000D03*
G54D30*
X22618500Y9921500D03*
Y14081500D03*
X23318500Y9921500D03*
X23218500D03*
X23118500D03*
X23018500D03*
X22918500D03*
X22818500D03*
X22718500D03*
X23368500D03*
X23268500D03*
X23168500D03*
X23068500D03*
X22968500D03*
X22868500D03*
X22768500D03*
X22668500D03*
Y14081500D03*
X22768500D03*
X22868500D03*
X22968500D03*
X23068500D03*
X23168500D03*
X23268500D03*
X23368500D03*
X22718500D03*
X22818500D03*
X22918500D03*
X23018500D03*
X23118500D03*
X23218500D03*
X23318500D03*
X24118500Y9921500D03*
X24018500D03*
X23918500D03*
X23818500D03*
X23718500D03*
X23618500D03*
X23518500D03*
X23418500D03*
X24068500D03*
X23968500D03*
X23868500D03*
X23768500D03*
X23668500D03*
X23568500D03*
X23468500D03*
Y14081500D03*
X23568500D03*
X23668500D03*
X23768500D03*
X23868500D03*
X23968500D03*
X24068500D03*
X23418500D03*
X23518500D03*
X23618500D03*
X23718500D03*
X23818500D03*
X23918500D03*
X24018500D03*
X24118500D03*
X24918500Y9921500D03*
X24818500D03*
X24718500D03*
X24618500D03*
X24518500D03*
X24418500D03*
X24318500D03*
X24218500D03*
X24868500D03*
X24768500D03*
X24668500D03*
X24568500D03*
X24468500D03*
X24368500D03*
X24268500D03*
X24168500D03*
Y14081500D03*
X24268500D03*
X24368500D03*
X24468500D03*
X24568500D03*
X24668500D03*
X24768500D03*
X24868500D03*
X24218500D03*
X24318500D03*
X24418500D03*
X24518500D03*
X24618500D03*
X24718500D03*
X24818500D03*
X24918500D03*
X25618500Y9921500D03*
X25518500D03*
X25418500D03*
X25318500D03*
X25218500D03*
X25118500D03*
X25018500D03*
X25668500D03*
X25568500D03*
X25468500D03*
X25368500D03*
X25268500D03*
X25168500D03*
X25068500D03*
X24968500D03*
Y14081500D03*
X25068500D03*
X25168500D03*
X25268500D03*
X25368500D03*
X25468500D03*
X25568500D03*
X25668500D03*
X25018500D03*
X25118500D03*
X25218500D03*
X25318500D03*
X25418500D03*
X25518500D03*
X25618500D03*
X25718500Y9921500D03*
X25768500D03*
X25718500Y14081500D03*
X25768500D03*
G54D13*
X15528000Y8875000D03*
Y10175000D03*
X16939500Y15206000D03*
X18239500D03*
G54D22*
X18865500Y7201000D03*
Y8801000D03*
X19615500Y7201000D03*
X19490500D03*
X19365500D03*
X19240500D03*
X19115500D03*
X18990500D03*
Y8801000D03*
X19115500D03*
X19240500D03*
X19365500D03*
X19490500D03*
X19615500D03*
X19740500Y7201000D03*
X20322000Y6756500D03*
X20197000D03*
X20072000D03*
Y8356500D03*
X20197000D03*
X20322000D03*
X19740500Y8801000D03*
X20947000Y6756500D03*
X20822000D03*
X20697000D03*
X20572000D03*
X20447000D03*
Y8356500D03*
X20572000D03*
X20697000D03*
X20822000D03*
X20947000D03*
X21903500Y6756500D03*
X21778500D03*
X21653500D03*
X21528500D03*
X21403500D03*
X21278500D03*
Y8356500D03*
X21403500D03*
X21528500D03*
X21653500D03*
X21778500D03*
X21903500D03*
X22153500Y6756500D03*
X22028500D03*
X22610000D03*
X22485000D03*
X22028500Y8356500D03*
X22153500D03*
X22485000D03*
X22610000D03*
X23360000Y6756500D03*
X23235000D03*
X23110000D03*
X22985000D03*
X22860000D03*
X22735000D03*
Y8356500D03*
X22860000D03*
X22985000D03*
X23110000D03*
X23235000D03*
X23360000D03*
X24191500Y6756500D03*
X24066500D03*
X23941500D03*
X23816500D03*
X23691500D03*
Y8356500D03*
X23816500D03*
X23941500D03*
X24066500D03*
X24191500D03*
X24566500Y6756500D03*
X24441500D03*
X24316500D03*
Y8356500D03*
X24441500D03*
X24566500D03*
X25713500Y6756500D03*
X25588500D03*
X25463500D03*
X25338500D03*
X25213500D03*
X25088500D03*
Y8356500D03*
X25213500D03*
X25338500D03*
X25463500D03*
X25588500D03*
X25713500D03*
X25963500Y6756500D03*
X25838500D03*
X26420000D03*
X26295000D03*
X25838500Y8356500D03*
X25963500D03*
X26295000D03*
X26420000D03*
X27170000Y6756500D03*
X27045000D03*
X26920000D03*
X26795000D03*
X26670000D03*
X26545000D03*
Y8356500D03*
X26670000D03*
X26795000D03*
X26920000D03*
X27045000D03*
X27170000D03*
G54D31*
X22113500Y10476500D03*
Y10576500D03*
Y10676500D03*
Y10776500D03*
Y10876500D03*
Y10426500D03*
Y10526500D03*
Y10626500D03*
Y10726500D03*
Y10826500D03*
Y10926500D03*
Y10976500D03*
Y11076500D03*
Y11176500D03*
Y11276500D03*
Y11376500D03*
Y11476500D03*
Y11576500D03*
Y11676500D03*
Y11026500D03*
Y11126500D03*
Y11226500D03*
Y11326500D03*
Y11426500D03*
Y11526500D03*
Y11626500D03*
Y11776500D03*
Y11876500D03*
Y11976500D03*
Y12076500D03*
Y12176500D03*
Y12276500D03*
Y12376500D03*
Y12476500D03*
Y11726500D03*
Y11826500D03*
Y11926500D03*
Y12026500D03*
Y12126500D03*
Y12226500D03*
Y12326500D03*
Y12426500D03*
Y12576500D03*
Y12676500D03*
Y12776500D03*
Y12876500D03*
Y12976500D03*
Y13076500D03*
Y13176500D03*
Y12526500D03*
Y12626500D03*
Y12726500D03*
Y12826500D03*
Y12926500D03*
Y13026500D03*
Y13126500D03*
Y13226500D03*
Y13276500D03*
Y13376500D03*
Y13476500D03*
Y13326500D03*
Y13426500D03*
Y13526500D03*
Y13576500D03*
X26273500Y10926500D03*
Y10826500D03*
Y10726500D03*
Y10626500D03*
Y10526500D03*
Y10876500D03*
Y10776500D03*
Y10676500D03*
Y10576500D03*
Y10476500D03*
Y10426500D03*
Y11626500D03*
Y11526500D03*
Y11426500D03*
Y11326500D03*
Y11226500D03*
Y11126500D03*
Y11026500D03*
Y11676500D03*
Y11576500D03*
Y11476500D03*
Y11376500D03*
Y11276500D03*
Y11176500D03*
Y11076500D03*
Y10976500D03*
Y12426500D03*
Y12326500D03*
Y12226500D03*
Y12126500D03*
Y12026500D03*
Y11926500D03*
Y11826500D03*
Y11726500D03*
Y12476500D03*
Y12376500D03*
Y12276500D03*
Y12176500D03*
Y12076500D03*
Y11976500D03*
Y11876500D03*
Y11776500D03*
Y13226500D03*
Y13126500D03*
Y13026500D03*
Y12926500D03*
Y12826500D03*
Y12726500D03*
Y12626500D03*
Y12526500D03*
Y13176500D03*
Y13076500D03*
Y12976500D03*
Y12876500D03*
Y12776500D03*
Y12676500D03*
Y12576500D03*
Y13526500D03*
Y13426500D03*
Y13326500D03*
Y13576500D03*
Y13476500D03*
Y13376500D03*
Y13276500D03*
G54D32*
X29083000Y6921500D03*
G54D14*
X16303850Y8756100D03*
X16503850D03*
X18696000Y10604500D03*
Y10858500D03*
Y11112500D03*
Y11366500D03*
Y11620500D03*
Y11874500D03*
Y12382500D03*
Y12128500D03*
X19638900Y9571150D03*
X19438900D03*
X19638900Y9825150D03*
X19438900D03*
X18896000Y10604500D03*
Y10858500D03*
Y11112500D03*
Y11366500D03*
Y11620500D03*
Y11874500D03*
Y12382500D03*
Y12128500D03*
X21172500Y15367000D03*
X21372500D03*
G54D23*
X18759500Y14749500D03*
Y14849500D03*
Y14949500D03*
Y15049500D03*
Y15149500D03*
Y15249500D03*
Y15349500D03*
G54D15*
X16363200Y10354500D03*
X16383000Y15644000D03*
X18501500Y6858000D03*
X19431000Y11366500D03*
Y12763500D03*
X27813000Y6835000D03*
Y8278000D03*
X29718000Y10477500D03*
Y12382500D03*
X30470850Y14744700D03*
X30480900Y14144300D03*
X30474750Y15367450D03*
G54D24*
X19612000Y10735500D03*
Y11235500D03*
Y12132500D03*
Y12632500D03*
X20012000Y10735500D03*
Y11235500D03*
Y12132500D03*
Y12632500D03*
X29580100Y9900700D03*
X29080100D03*
Y10300700D03*
X29580100D03*
X29588200Y11812300D03*
X29088200D03*
Y12212300D03*
X29588200D03*
G54D33*
X28483000Y6696500D03*
Y7146500D03*
G54D25*
X19094500Y14314500D03*
G54D16*
X16383000Y15344000D03*
X16663200Y10354500D03*
X18201500Y6858000D03*
X19431000Y10604500D03*
Y12001500D03*
X20193000Y10604500D03*
Y11366500D03*
Y12001500D03*
Y12763500D03*
X27813000Y7135000D03*
Y7978000D03*
X28956000Y9715500D03*
Y10477500D03*
Y11620500D03*
Y12382500D03*
X29718000Y9715500D03*
Y11620500D03*
X30720850Y14744700D03*
X30730900Y14144300D03*
X30724750Y15367450D03*
G54D34*
X29292000Y7825950D03*
X29052000D03*
X28812000D03*
G54D26*
X19594500Y14314500D03*
X19494500D03*
X19394500D03*
X19294500D03*
X19194500D03*
X19794500D03*
X19694500D03*
G54D17*
X16611600Y6858000D03*
Y6985000D03*
Y7112000D03*
Y7239000D03*
Y7366000D03*
Y7493000D03*
Y7620000D03*
Y7747000D03*
Y7874000D03*
Y8001000D03*
X17551400Y6858000D03*
Y6985000D03*
Y7112000D03*
Y7239000D03*
Y7366000D03*
Y7493000D03*
Y7620000D03*
Y7747000D03*
Y7874000D03*
Y8001000D03*
G54D27*
X19494500Y15784500D03*
X19594500D03*
X19694500D03*
X19794500D03*
G54D18*
X16687350Y9180700D03*
Y9020700D03*
X16690050Y9506000D03*
Y9666000D03*
X29718000Y8161000D03*
Y8001000D03*
G54D28*
X19194500Y15784500D03*
X19294500D03*
X19394500D03*
X19894500D03*
G54D19*
X17232050Y9271800D03*
X17226650Y9045000D03*
X17302500Y9525000D03*
Y10033000D03*
Y9779000D03*
Y10795000D03*
Y10287000D03*
Y10541000D03*
Y11303000D03*
Y11049000D03*
Y11557000D03*
Y11811000D03*
Y12065000D03*
Y12319000D03*
Y12573000D03*
Y12827000D03*
Y13081000D03*
Y13335000D03*
Y13589000D03*
X18064500Y8572500D03*
Y8191500D03*
Y8382000D03*
Y8001000D03*
Y9144000D03*
Y8763000D03*
Y8953500D03*
Y9334500D03*
X17392050Y9271800D03*
X17386650Y9045000D03*
X17462500Y9525000D03*
Y10033000D03*
Y9779000D03*
Y10795000D03*
Y10287000D03*
Y10541000D03*
Y11303000D03*
Y11049000D03*
Y11557000D03*
Y11811000D03*
Y12065000D03*
Y12319000D03*
Y12573000D03*
Y12827000D03*
Y13081000D03*
Y13335000D03*
Y13589000D03*
X17943550Y14146650D03*
X17783550D03*
X18224500Y8572500D03*
Y8191500D03*
Y8382000D03*
Y8001000D03*
Y9144000D03*
Y8763000D03*
Y8953500D03*
Y9334500D03*
X18255000Y10858500D03*
X18415000D03*
X18255000Y10604500D03*
X18415000D03*
X18255000Y11112500D03*
X18415000D03*
X18255000Y11366500D03*
X18415000D03*
X18255000Y11620500D03*
X18415000D03*
X18255000Y11874500D03*
X18415000D03*
X18255000Y12128500D03*
X18415000D03*
X18255000Y12382500D03*
X18415000D03*
X18393100Y13851000D03*
X18233100D03*
X18387700Y13663350D03*
X18227700D03*
X18236450Y14145300D03*
X18396450D03*
X18997900Y9825150D03*
X19157900D03*
X18997900Y9571150D03*
X19157900D03*
X20924500Y15367000D03*
X20764500D03*
X21493500Y10922000D03*
X21653500D03*
X21493500Y11938000D03*
X21653500D03*
X26830000Y9715500D03*
X26670000D03*
X28592350Y7453350D03*
X28432350D03*
X28417500Y11620500D03*
X28257500D03*
G54D29*
X20229500Y14749500D03*
Y15349500D03*
Y15249500D03*
Y15149500D03*
Y15049500D03*
Y14949500D03*
Y14849500D03*
M02*
