G04 ================== begin FILE IDENTIFICATION RECORD ==================*
G04 Layout Name:  C:/SPB_Data/pcb_pkg/dummy_root_design/physical/pci_lpt_com_route.brd*
G04 Film Name:    XC4TPCI_SOLDERBOTTOM*
G04 File Format:  Gerber RS274X*
G04 File Origin:  Cadence Allegro 16.6-S026*
G04 Origin Date:  Wed May 16 19:07:04 2018*
G04 *
G04 Layer:  PIN/SOLDERMASK_BOTTOM*
G04 Layer:  PACKAGE GEOMETRY/SOLDERMASK_BOTTOM*
G04 Layer:  BOARD GEOMETRY/SOLDERMASK_BOTTOM*
G04 *
G04 Offset:    (0.0000 0.0000)*
G04 Mirror:    No*
G04 Mode:      Positive*
G04 Rotation:  0*
G04 FullContactRelief:  No*
G04 UndefLineWidth:     0.2000*
G04 ================== end FILE IDENTIFICATION RECORD ====================*
%FSLAX45Y45*MOMM*%
%IR0*IPPOS*OFA0.00000B0.00000*MIA0B0*SFA1.00000B1.00000*%
%ADD17R,1.X.9*%
%ADD13R,.9X1.*%
%ADD16C,1.2*%
%ADD11C,1.5*%
%ADD18R,1.28X4.5*%
%ADD14C,2.7*%
%ADD10C,3.6*%
%ADD15R,1.2X1.2*%
%ADD12R,1.5X1.5*%
G75*
%LPD*%
G75*
G36*
G01X18588150Y6180300D02*
Y5564700D01*
X18628650Y5524200D01*
X19988100D01*
X20028600Y5564700D01*
Y6180300D01*
X18588150D01*
G37*
G36*
G01X20224350Y6178950D02*
Y5563350D01*
X20263500Y5524200D01*
X24814350D01*
X24854850Y5564700D01*
Y6178950D01*
X20224350D01*
G37*
G36*
G01X25043850Y6181650D02*
Y5564700D01*
X25084350Y5524200D01*
X26458650D01*
X26499150Y5564700D01*
Y6181650D01*
X25043850D01*
G37*
G54D10*
X15161500Y10840000D03*
Y15554000D03*
X15479000Y5816000D03*
Y8315000D03*
X29781500Y6921500D03*
X30481500D03*
G54D11*
X15019500Y11673000D03*
Y12504000D03*
Y12227000D03*
Y11950000D03*
Y13058000D03*
Y12781000D03*
Y13889000D03*
Y13612000D03*
Y13335000D03*
Y14720000D03*
Y14443000D03*
Y14166000D03*
X15337000Y6650000D03*
Y6927000D03*
Y7204000D03*
X15621000Y6512000D03*
Y6789000D03*
Y7066000D03*
X15337000Y7481000D03*
X15621000Y7343000D03*
X15803000Y9175000D03*
Y9425000D03*
Y9625000D03*
X15303500Y12366000D03*
Y12089000D03*
Y11812000D03*
Y13197000D03*
Y12920000D03*
Y12643000D03*
Y14028000D03*
Y13751000D03*
Y13474000D03*
Y14582000D03*
Y14305000D03*
Y14859000D03*
X17239500Y14931000D03*
X17489500D03*
X17689500D03*
X19586000Y6589150D03*
Y6843150D03*
X19332000Y6589150D03*
X21018500Y8953500D03*
X20764500D03*
X21018500Y9207500D03*
X20764500D03*
X21018500Y9461500D03*
X20764500D03*
X21018500Y9715500D03*
X20764500D03*
X21018500Y9969500D03*
X20764500D03*
X21018500Y10223500D03*
X20764500D03*
X21018500Y10477500D03*
Y10731500D03*
Y10985500D03*
X20764500Y10477500D03*
Y10731500D03*
Y10985500D03*
X21018500Y11239500D03*
Y11493500D03*
Y11747500D03*
X20764500Y11239500D03*
Y11493500D03*
Y11747500D03*
X21018500Y12001500D03*
Y12255500D03*
Y12509500D03*
X20764500Y12001500D03*
Y12255500D03*
Y12509500D03*
X21018500Y12763500D03*
Y13017500D03*
Y13271500D03*
X20764500Y12763500D03*
Y13017500D03*
Y13271500D03*
X21018500Y13525500D03*
Y13779500D03*
Y14033500D03*
X20764500Y13525500D03*
Y13779500D03*
Y14033500D03*
X21018500Y14287500D03*
Y14541500D03*
Y14795500D03*
X20764500Y14287500D03*
Y14541500D03*
Y14795500D03*
X21018500Y15049500D03*
X21907500Y9207500D03*
X21653500D03*
X21907500Y8953500D03*
X21272500Y14795500D03*
X21526500D03*
X21780500D03*
X21272500Y15049500D03*
X21526500D03*
X21780500D03*
X22669500Y9207500D03*
X22415500D03*
X22161500D03*
X22669500Y8953500D03*
X22415500D03*
X22161500D03*
X22034500Y14795500D03*
X22288500D03*
X22542500D03*
X22034500Y15049500D03*
X22288500D03*
X22542500D03*
X22606000Y15875000D03*
X22352000D03*
X22098000D03*
X22606000Y15621000D03*
X22352000D03*
X23431500Y9207500D03*
X23177500D03*
X22923500D03*
X23431500Y8953500D03*
X23177500D03*
X22923500D03*
X22796500Y14795500D03*
X23050500D03*
X23304500D03*
X22796500Y15049500D03*
X23050500D03*
X23304500D03*
X23114000Y15875000D03*
X22860000D03*
X23114000Y15621000D03*
X22860000D03*
X24193500Y9207500D03*
X23939500D03*
X23685500D03*
X24193500Y8953500D03*
X23939500D03*
X23685500D03*
X23558500Y14795500D03*
X23812500D03*
X24066500D03*
X23558500Y15049500D03*
X23812500D03*
X24066500D03*
X24828500Y6731000D03*
X24955500Y9207500D03*
X24701500D03*
X24447500D03*
X24955500Y8953500D03*
X24701500D03*
X24447500D03*
X24320500Y14795500D03*
X24574500D03*
X24828500D03*
X24320500Y15049500D03*
X24574500D03*
X24828500D03*
X24752450Y15873500D03*
X24498450D03*
X24752450Y15619500D03*
X25717500Y9207500D03*
X25463500D03*
X25209500D03*
X25717500Y8953500D03*
X25463500D03*
X25209500D03*
X25082500Y14795500D03*
X25336500D03*
X25590500D03*
X25082500Y15049500D03*
X25336500D03*
X25590500D03*
X25514450Y15873500D03*
X25260450D03*
X25006450D03*
X25514450Y15619500D03*
X25260450D03*
X25006450D03*
X26479500Y9207500D03*
X26225500D03*
X25971500D03*
X26479500Y8953500D03*
X26225500D03*
X25971500D03*
X25844500Y14795500D03*
X26098500D03*
X26352500D03*
X25844500Y15049500D03*
X26098500D03*
X26352500D03*
X26987500Y9207500D03*
Y8953500D03*
X26733500Y9207500D03*
Y8953500D03*
X26606500Y14795500D03*
X26860500D03*
X27114500D03*
X26606500Y15049500D03*
X26860500D03*
X27114500D03*
X27622500Y9461500D03*
Y9207500D03*
Y8953500D03*
X27876500Y9461500D03*
Y9207500D03*
X27622500Y10223500D03*
Y9969500D03*
Y9715500D03*
X27876500Y10223500D03*
Y9969500D03*
Y9715500D03*
X27622500Y10985500D03*
Y10731500D03*
Y10477500D03*
X27876500Y10985500D03*
Y10731500D03*
Y10477500D03*
X27622500Y11747500D03*
Y11493500D03*
Y11239500D03*
X27876500Y11747500D03*
Y11493500D03*
Y11239500D03*
X27622500Y12509500D03*
Y12255500D03*
Y12001500D03*
X27876500Y12509500D03*
Y12255500D03*
Y12001500D03*
X27622500Y13271500D03*
Y13017500D03*
Y12763500D03*
X27876500Y13271500D03*
Y13017500D03*
Y12763500D03*
X27622500Y14033500D03*
X27876500D03*
X27622500Y13779500D03*
Y13525500D03*
X27876500Y13779500D03*
Y13525500D03*
X27622500Y14795500D03*
X27876500D03*
X27622500Y14541500D03*
X27876500D03*
X27622500Y14287500D03*
X27876500D03*
X27368500Y14795500D03*
X27622500Y15049500D03*
X27876500D03*
X27876550Y15583250D03*
X27622550D03*
X27368550D03*
X27876550Y15329250D03*
X27622550D03*
X28384500Y12509500D03*
Y12255500D03*
Y12001500D03*
X28130500Y12509500D03*
Y12255500D03*
G54D12*
X15621000Y7620000D03*
X15803000Y9875000D03*
X15303500Y11535000D03*
X17939500Y14931000D03*
X19332000Y6843150D03*
X20764500Y15049500D03*
X21653500Y8953500D03*
X22098000Y15621000D03*
X22720500Y10450350D03*
X22796500Y11874500D03*
X22796100Y12150000D03*
X23021550Y13579650D03*
X24828500Y6477000D03*
X24498450Y15619500D03*
X25628400Y10465200D03*
X25347600D03*
X25721550Y13267800D03*
X25463500Y13525500D03*
X27876500Y8953500D03*
X27368500Y15049500D03*
X27368550Y15329250D03*
X28130500Y12001500D03*
G54D13*
X15285350Y9343350D03*
X15445350D03*
X15279950Y9711900D03*
X15439950D03*
X16159500Y6667500D03*
X16319500D03*
X16352500Y8191500D03*
X16192500D03*
X16413500Y10096500D03*
X16573500D03*
X17231400Y9274500D03*
X17227350Y9045000D03*
X17391400Y9274500D03*
X17387350Y9045000D03*
X18448000Y6667500D03*
X18288000D03*
X18233750Y13657950D03*
X18393750D03*
X18228350Y13845600D03*
X18388350D03*
X19207500Y15049500D03*
X19367500D03*
X19733600Y10984950D03*
X19893600D03*
X19892950Y10731150D03*
X19732950D03*
X19908500Y11493500D03*
X19748500D03*
X19730900Y12386250D03*
X19890900D03*
X19894300Y12151350D03*
X19734300D03*
X19908500Y12890500D03*
X19748500D03*
X19660700Y14747400D03*
X19820700D03*
X19655300Y15047100D03*
X19815300D03*
X21844000Y14414500D03*
X22004000D03*
X22890500Y11303000D03*
X23050500D03*
X22890500Y12573000D03*
X23050500D03*
X24852800Y15367050D03*
X24330350Y15365700D03*
X24490350D03*
X25623500Y11684000D03*
X25463500D03*
X25623500Y12128500D03*
X25463500D03*
X25012800Y15367050D03*
X26322000Y15621000D03*
X26162000D03*
X29253800Y10107450D03*
X29413800D03*
X29253800Y12010950D03*
X29413800D03*
X29858600Y14146650D03*
X30018600D03*
X29855900Y14762250D03*
X30015900D03*
X29847800Y15367050D03*
X30007800D03*
G54D14*
X15528000Y8875000D03*
Y10175000D03*
X16939500Y15206000D03*
X18239500D03*
G54D15*
X16363200Y10354500D03*
X16383000Y15644000D03*
X18501500Y6858000D03*
X19431000Y11366500D03*
Y12763500D03*
X27813000Y6835000D03*
Y8278000D03*
X29718000Y10477500D03*
Y12382500D03*
X30470850Y14744700D03*
X30480900Y14144300D03*
X30474750Y15367450D03*
G54D16*
X16383000Y15344000D03*
X16663200Y10354500D03*
X18201500Y6858000D03*
X19431000Y10604500D03*
Y12001500D03*
X20193000Y10604500D03*
Y11366500D03*
Y12001500D03*
Y12763500D03*
X27813000Y7135000D03*
Y7978000D03*
X28956000Y9715500D03*
Y10477500D03*
Y11620500D03*
Y12382500D03*
X29718000Y9715500D03*
Y11620500D03*
X30720850Y14744700D03*
X30730900Y14144300D03*
X30724750Y15367450D03*
G54D17*
X16636050Y15412950D03*
Y15572950D03*
X17405550Y15401500D03*
Y15241500D03*
X17714700Y15404200D03*
Y15244200D03*
X18605500Y7968000D03*
Y8128000D03*
X18859500Y7968000D03*
Y8128000D03*
X19367500Y7968000D03*
Y8128000D03*
X19113500Y7968000D03*
Y8128000D03*
X20955000Y7523500D03*
Y7683500D03*
X21717000Y15844500D03*
Y15684500D03*
X22161500Y7460000D03*
Y7620000D03*
X22479000Y7460000D03*
Y7620000D03*
X23050500Y7460000D03*
Y7620000D03*
X23304500Y7460000D03*
Y7620000D03*
X22796500Y7460000D03*
Y7620000D03*
X22733000Y13365500D03*
Y13525500D03*
X23812500Y7460000D03*
Y7620000D03*
X23558500Y7460000D03*
Y7620000D03*
X24066500Y7460000D03*
Y7620000D03*
X23939500Y10508000D03*
Y10668000D03*
X23685500Y13208000D03*
Y13368000D03*
X24130000Y15844500D03*
Y15684500D03*
X24828500Y7048500D03*
Y7208500D03*
X24320500Y10508000D03*
Y10668000D03*
X24257000Y13208000D03*
Y13368000D03*
X26416000Y6571000D03*
Y6731000D03*
X29019500Y6825000D03*
Y6985000D03*
X28966950Y10019000D03*
Y10179000D03*
X29000700Y11937350D03*
Y12097350D03*
X29845000Y10000000D03*
Y10160000D03*
Y11905000D03*
Y12065000D03*
G54D18*
X18669000Y5939500D03*
X18796000D03*
X18923000D03*
X19050000D03*
X19177000D03*
X19304000D03*
X19431000D03*
X19558000D03*
X19685000D03*
X19812000D03*
X19939000D03*
X20320000D03*
X20447000D03*
X20574000D03*
X20701000D03*
X20828000D03*
X20955000D03*
X21082000D03*
X21209000D03*
X21336000D03*
X21463000D03*
X21590000D03*
X21717000D03*
X21844000D03*
X21971000D03*
X22098000D03*
X22225000D03*
X22352000D03*
X22479000D03*
X22606000D03*
X22733000D03*
X22860000D03*
X22987000D03*
X23114000D03*
X23241000D03*
X23368000D03*
X23495000D03*
X23622000D03*
X23749000D03*
X23876000D03*
X24003000D03*
X24130000D03*
X24257000D03*
X24384000D03*
X24511000D03*
X24638000D03*
X24765000D03*
X25146000D03*
X25273000D03*
X25400000D03*
X25527000D03*
X25654000D03*
X25781000D03*
X25908000D03*
X26035000D03*
X26162000D03*
X26289000D03*
X26416000D03*
M02*
